# xmcd
#
# Track frame offsets: 
#        150
#        12950
#        27135
#        41393
#        57920
#        71700
#        82678
#        96423
#        111800
#        125715
#        140920
#
# Disc length: 2076 seconds
#
# Revision: 5
# Processed by: cddbd v1.5.2PL0 Copyright (c) Steve Scherf et al.
# Submitted via: ExactAudioCopy v0.99pb3
#
DISCID=93081a0b
DTITLE=Ricky Van Shelton - Love And Honor
DYEAR=1994
DGENRE=Country
TTITLE0=Wherever She Is
TTITLE1=Complicated
TTITLE2=Lola's Love
TTITLE3=I Thought I'd Heard It All
TTITLE4=Then For Them
TTITLE5=Baby, Take A Picture
TTITLE6=Love Without You
TTITLE7=Been There, Done That
TTITLE8=Love And Honor
TTITLE9=Where The Tall Grass Grows
TTITLE10=Thanks A Lot
EXTD=
EXTT0=
EXTT1=
EXTT2=
EXTT3=
EXTT4=
EXTT5=
EXTT6=
EXTT7=
EXTT8=
EXTT9=
EXTT10=
PLAYORDER=
